<?xml version="1.0" standalone="no"?>
<!DOCTYPE svg PUBLIC "-//W3C//DTD SVG 20010904//EN"
 "http://www.w3.org/TR/2001/REC-SVG-20010904/DTD/svg10.dtd">
<svg version="1.0" xmlns="http://www.w3.org/2000/svg"
 width="512.000000pt" height="512.000000pt" viewBox="0 0 512.000000 512.000000"
 preserveAspectRatio="xMidYMid meet">

<g transform="translate(0.000000,512.000000) scale(0.100000,-0.100000)"
fill="#000000" stroke="none">
<path d="M2981 4633 c-14 -16 -64 -94 -110 -175 l-83 -148 -289 0 -290 0 -24
-25 c-14 -13 -25 -36 -25 -50 0 -14 11 -37 25 -50 l24 -25 326 0 c302 0 326 1
343 18 11 11 59 89 108 175 l89 157 948 0 947 0 0 -1950 0 -1950 -1122 0
-1123 0 -89 157 c-49 86 -97 164 -108 175 -17 17 -44 18 -453 18 -409 0 -436
-1 -453 -18 -11 -11 -59 -89 -108 -175 l-89 -157 -637 0 -638 0 0 735 0 736
-25 24 c-31 32 -69 32 -100 0 l-25 -24 0 -786 0 -786 25 -24 24 -25 721 0 722
0 27 28 c14 15 64 93 110 174 l83 148 363 0 363 0 83 -148 c46 -81 96 -159
110 -174 l27 -28 1207 0 1206 0 24 25 25 24 0 2051 0 2051 -25 24 -24 25
-1031 0 -1032 0 -27 -27z"/>
<path d="M3165 4346 c-11 -7 -60 -85 -110 -172 l-91 -159 -894 -5 c-492 -3
-896 -6 -898 -8 -2 -1 -9 -16 -16 -34 -16 -37 -5 -83 24 -98 12 -6 356 -10
933 -10 857 0 916 1 936 18 29 24 231 382 231 410 0 30 -43 72 -73 72 -13 0
-32 -6 -42 -14z"/>
<path d="M4395 4335 c-14 -13 -25 -36 -25 -50 0 -14 11 -37 25 -50 23 -24 30
-25 150 -25 l125 0 0 -360 0 -361 25 -24 c31 -32 69 -32 100 0 l25 24 0 411 0
411 -25 24 c-24 25 -27 25 -200 25 -173 0 -176 0 -200 -25z"/>
<path d="M1030 4293 c-66 -45 -1011 -827 -1020 -843 -6 -12 -10 -217 -10 -545
l0 -526 25 -24 c29 -30 64 -32 96 -6 l24 19 5 508 5 508 473 388 473 388 405
0 405 0 24 25 c32 31 32 69 0 100 l-24 25 -428 0 c-387 0 -431 -2 -453 -17z"/>
<path d="M3332 4042 c-11 -11 -59 -89 -108 -175 l-89 -157 -937 0 -937 0 -308
-251 c-169 -138 -318 -262 -330 -275 l-23 -25 0 -1025 0 -1025 25 -24 24 -25
249 0 c228 0 250 2 268 19 11 10 60 89 109 175 l89 156 278 0 279 0 24 25 c14
13 25 31 25 40 0 12 16 15 100 15 92 0 100 -2 100 -19 0 -11 12 -29 26 -40 26
-20 39 -21 308 -21 l281 0 89 -157 c49 -86 97 -164 108 -175 17 -17 53 -18
753 -18 l736 0 24 25 25 24 0 1451 0 1451 -25 24 -24 25 -561 0 c-530 0 -561
-1 -578 -18z m-562 -489 c0 -4 -10 -37 -22 -75 l-22 -68 -492 0 -492 0 -25 75
-26 75 540 0 c296 0 539 -3 539 -7z m1600 -971 l0 -649 -75 26 -75 26 0 596 0
595 73 26 c39 14 73 26 75 27 1 0 2 -291 2 -647z m-3532 97 l62 -21 0 -338 0
-338 -62 -21 c-34 -12 -68 -21 -75 -21 -10 0 -13 74 -13 380 0 306 3 380 13
380 7 0 41 -9 75 -21z m2599 -1364 c28 -49 52 -93 53 -97 0 -5 -27 -8 -59 -8
l-59 0 -32 58 c-18 31 -44 76 -58 100 l-24 43 63 -3 63 -3 53 -90z m600 0 c28
-49 52 -93 53 -97 0 -5 -27 -8 -59 -8 l-59 0 -32 58 c-18 31 -44 76 -58 100
l-24 43 63 -3 63 -3 53 -90z"/>
<path d="M325 3325 l-25 -24 0 -1246 0 -1246 25 -24 24 -25 475 0 c261 0 482
3 491 6 45 18 48 111 5 134 -12 6 -186 10 -444 10 l-426 0 0 1195 0 1196 -25
24 c-13 14 -36 25 -50 25 -14 0 -37 -11 -50 -25z"/>
<path d="M4695 3215 l-25 -24 0 -1141 0 -1140 -901 0 c-568 0 -907 -4 -919
-10 -43 -23 -40 -116 5 -134 9 -3 444 -6 966 -6 l950 0 24 25 25 24 0 1191 0
1191 -25 24 c-13 14 -36 25 -50 25 -14 0 -37 -11 -50 -25z"/>
<path d="M1567 1248 c-40 -31 -36 -115 8 -132 22 -8 978 -8 1000 0 45 18 48
111 5 134 -30 16 -992 13 -1013 -2z"/>
</g>
</svg>
